<svg width="33.26" height="34.74" xmlns="http://www.w3.org/2000/svg">
 <title>Asset 61</title>

 <g>
  <title>background</title>
  <rect fill="none" id="canvas_background" height="402" width="582" y="-1" x="-1"/>
 </g>
 <g>
  <title>Layer 1</title>
  <g id="Layer_2">
   <g id="Layer_1-2">
    <path fill="#ffffff" id="svg_1" d="m32.26,14.11l-16.38,0l0,-6.17a7.94,7.94 0 0 0 -15.88,0l0,7.19a1,1 0 0 0 2,0l0,-7.19a5.94,5.94 0 0 1 11.88,0l0,6.17l-4.12,0a1,1 0 0 0 -1,1l0,18.63a1,1 0 0 0 1,1l22.5,0a1,1 0 0 0 1,-1l0,-18.63a1,1 0 0 0 -1,-1zm-1,18.63l-20.5,0l0,-16.63l20.5,0l0,16.63zm-12.54,-7.3l0,2.44a1,1 0 0 0 1,1l2.91,0a1,1 0 0 0 1,-1l0,-2.44a3.68,3.68 0 1 0 -4.91,0zm2.45,-4.44a1.68,1.68 0 0 1 0.91,3.09a1,1 0 0 0 -0.46,0.84l0,1.93l-0.91,0l0,-1.91a1,1 0 0 0 -0.46,-0.84a1.68,1.68 0 0 1 0.92,-3.11z"/>
   </g>
  </g>
 </g>
</svg>