<svg width="31.09" height="30.67" xmlns="http://www.w3.org/2000/svg">
 <title>Asset 62</title>

 <g>
  <title>background</title>
  <rect fill="none" id="canvas_background" height="402" width="582" y="-1" x="-1"/>
 </g>
 <g>
  <title>Layer 1</title>
  <g id="Layer_2">
   <g id="Layer_1-2">
    <path fill="#ffffff" id="svg_1" d="m17.38,21.13a1,1 0 0 1 0,1.41l-7.84,7.84a1,1 0 0 1 -1.09,0.22a1,1 0 0 1 -0.32,-0.22l-7.84,-7.84a1,1 0 0 1 1.41,-1.41l6.13,6.13l0,-26.26a1,1 0 0 1 2,0l0,26.26l6.17,-6.13a1,1 0 0 1 1.38,0zm13.42,-13l-7.8,-7.84a1,1 0 0 0 -1.42,0l-7.87,7.84a1,1 0 0 0 1.41,1.41l6.13,-6.13l0,26.26a1,1 0 0 0 2,0l0,-26.26l6.13,6.13a1,1 0 0 0 1.42,-1.41z"/>
   </g>
  </g>
 </g>
</svg>