<svg id="Layer_1" data-name="Layer 1" xmlns="http://www.w3.org/2000/svg" viewBox="0 0 255.99 40"><title>Modern_Money_Logo</title><path d="M26.62,4.78,21.84,0V20.54L17.1,15.76H0l5.51,5.51H21l-11,11V40L21.76,28.27,33.57,40V32.22L22.26,21H38l4.78-4.78H26.62ZM5.78,20.57,1.7,16.47h15l4.1,4.1ZM32.86,32.51v5.8l-11.1-11-11,11v-5.8l11-11Z"/><polygon points="64.62 23.76 59.14 10.14 52.42 10.14 52.42 32.69 57.22 32.69 57.22 16.9 63.57 32.69 65.67 32.69 72.02 16.9 72.02 32.69 76.86 32.69 76.86 10.14 70.1 10.14 64.62 23.76"/><path d="M87.43,16a8.27,8.27,0,0,0-8.62,8.55,8.64,8.64,0,0,0,17.27,0A8.28,8.28,0,0,0,87.43,16Zm0,13.32c-2.67,0-4.16-2.2-4.16-4.77s1.49-4.73,4.16-4.73,4.19,2.2,4.19,4.73S90.1,29.27,87.43,29.27Z"/><path d="M109.13,18.46a6.29,6.29,0,0,0-5-2.5c-4.16,0-7.23,3.25-7.23,8.59s3.11,8.55,7.23,8.55a6.34,6.34,0,0,0,5-2.5v2.1h4.33V10.14h-4.33Zm0,9a4.67,4.67,0,0,1-3.72,1.86c-2.43,0-4.12-1.93-4.12-4.73s1.69-4.77,4.12-4.77a4.67,4.67,0,0,1,3.72,1.86Z"/><path d="M123.77,16a8.31,8.31,0,0,0-8.45,8.55c0,5.24,3.75,8.59,8.72,8.59a10.18,10.18,0,0,0,6.73-2.26l-1.89-2.77a7,7,0,0,1-4.36,1.62,4.4,4.4,0,0,1-4.7-3.79h12.13v-.95C131.95,19.61,128.63,16,123.77,16Zm-4,7a3.92,3.92,0,0,1,4-3.62,3.78,3.78,0,0,1,4,3.62Z"/><path d="M138,18.59V16.36H133.7V32.69H138V21.9A5.47,5.47,0,0,1,142,20a5.7,5.7,0,0,1,1.18.1V16A7,7,0,0,0,138,18.59Z"/><path d="M154.52,16a7.48,7.48,0,0,0-5.71,2.54V16.36h-4.29V32.69h4.29v-11a4.65,4.65,0,0,1,3.72-1.93c1.82,0,3,.78,3,3v9.87h4.29V21.16C159.83,18,158.11,16,154.52,16Z"/><polygon points="174.26 27.11 167.26 10.14 163.24 10.14 163.24 32.69 166.05 32.69 166.05 14.13 173.69 32.69 174.84 32.69 182.51 14.13 182.51 32.69 185.31 32.69 185.31 10.14 181.29 10.14 174.26 27.11"/><path d="M196.26,16c-5,0-8.08,3.82-8.08,8.55s3.11,8.59,8.08,8.59,8.08-3.85,8.08-8.59S201.23,16,196.26,16Zm0,14.87c-3.48,0-5.44-3-5.44-6.32s2-6.29,5.44-6.29,5.41,3,5.41,6.29S199.75,30.83,196.26,30.83Z"/><path d="M215.46,16a8.1,8.1,0,0,0-5.81,2.77V16.36h-2.54V32.69h2.54V20.75a6.3,6.3,0,0,1,4.83-2.54c2.2,0,3.65.91,3.65,3.79V32.69h2.54V21.23C220.67,17.68,218.88,16,215.46,16Z"/><path d="M231.48,16c-4.66,0-8,3.82-8,8.55,0,5.11,3.48,8.59,8.32,8.59a8.87,8.87,0,0,0,6.49-2.5L237,28.94A7.14,7.14,0,0,1,232,31a5.75,5.75,0,0,1-5.88-5.64h13.22v-.64C239.32,19.81,236.42,16,231.48,16Zm-5.37,7.54c.14-2.5,1.86-5.44,5.34-5.44a5.29,5.29,0,0,1,5.37,5.44Z"/><path d="M253.21,16.36l-5.41,13.39-5.44-13.39h-2.74l6.83,16.5-1.08,2.47A2.35,2.35,0,0,1,242.94,37a3.89,3.89,0,0,1-1.39-.27l-.41,2.3a8.26,8.26,0,0,0,1.86.24,4.85,4.85,0,0,0,4.8-3.31L256,16.36Z"/></svg>