<?xml version="1.0" encoding="utf-8"?>
<!-- Generator: Adobe Illustrator 21.1.0, SVG Export Plug-In . SVG Version: 6.00 Build 0)  -->
<svg version="1.1" id="Layer_1" xmlns="http://www.w3.org/2000/svg" xmlns:xlink="http://www.w3.org/1999/xlink" x="0px" y="0px"
	 viewBox="0 0 256 40" style="enable-background:new 0 0 256 40;" xml:space="preserve">
<style type="text/css">
	.st0{fill:#FFFFFF;}
</style>
<title>Modern_Money_Logo</title>
<path class="st0" d="M26.6,4.8L21.8,0v20.5l-4.7-4.8H0l5.5,5.5H21l-11,11V40l11.8-11.7L33.6,40v-7.8L22.3,21H38l4.8-4.8H26.6V4.8z
	 M5.8,20.6l-4.1-4.1h15l4.1,4.1H5.8z M32.9,32.5v5.8l-11.1-11l-11,11v-5.8l11-11L32.9,32.5z"/>
<polygon class="st0" points="64.6,23.8 59.1,10.1 52.4,10.1 52.4,32.7 57.2,32.7 57.2,16.9 63.6,32.7 65.7,32.7 72,16.9 72,32.7 
	76.9,32.7 76.9,10.1 70.1,10.1 "/>
<path class="st0" d="M87.4,16c-4.6-0.2-8.4,3.3-8.6,7.9c0,0.2,0,0.4,0,0.6c0.2,4.8,4.2,8.5,8.9,8.3c4.5-0.2,8.2-3.8,8.3-8.3
	c0.2-4.6-3.4-8.4-8-8.6C87.9,16,87.6,16,87.4,16z M87.4,29.3c-2.7,0-4.2-2.2-4.2-4.8s1.5-4.7,4.2-4.7s4.2,2.2,4.2,4.7
	S90.1,29.3,87.4,29.3L87.4,29.3z"/>
<path class="st0" d="M109.1,18.5c-1.2-1.6-3-2.5-5-2.5c-4.2,0-7.2,3.2-7.2,8.6s3.1,8.5,7.2,8.5c2,0,3.8-0.9,5-2.5v2.1h4.3V10.1h-4.3
	V18.5z M109.1,27.5c-0.9,1.2-2.3,1.9-3.7,1.9c-2.4,0-4.1-1.9-4.1-4.7s1.7-4.8,4.1-4.8c1.5,0,2.8,0.7,3.7,1.9V27.5z"/>
<path class="st0" d="M123.8,16c-4.6-0.1-8.4,3.6-8.5,8.2c0,0.1,0,0.3,0,0.4c0,5.2,3.8,8.6,8.7,8.6c2.4,0.1,4.8-0.7,6.7-2.3l-1.9-2.8
	c-1.2,1-2.8,1.6-4.4,1.6c-2.3,0.2-4.4-1.5-4.7-3.8H132v-1C131.9,19.6,128.6,16,123.8,16z M119.8,23c0.2-2.1,1.9-3.7,4-3.6
	c2.1-0.1,3.9,1.5,4,3.6c0,0,0,0,0,0.1H119.8z"/>
<path class="st0" d="M138,18.6v-2.2h-4.3v16.3h4.3V21.9c1-1.2,2.5-1.9,4-1.9c0.4,0,0.8,0,1.2,0.1V16C141.2,16.1,139.3,17,138,18.6z"
	/>
<path class="st0" d="M154.5,16c-2.2,0-4.3,0.9-5.7,2.5v-2.2h-4.3v16.3h4.3v-11c0.9-1.2,2.2-1.9,3.7-1.9c1.8,0,3,0.8,3,3v9.9h4.3
	V21.2C159.8,18,158.1,16,154.5,16z"/>
<polygon class="st0" points="174.3,27.1 167.3,10.1 163.2,10.1 163.2,32.7 166.1,32.7 166.1,14.1 173.7,32.7 174.8,32.7 182.5,14.1 
	182.5,32.7 185.3,32.7 185.3,10.1 181.3,10.1 "/>
<path class="st0" d="M196.3,16c-5,0-8.1,3.8-8.1,8.5s3.1,8.6,8.1,8.6s8.1-3.9,8.1-8.6S201.2,16,196.3,16z M196.3,30.9
	c-3.5,0-5.4-3-5.4-6.3s2-6.3,5.4-6.3s5.4,3,5.4,6.3S199.8,30.8,196.3,30.9L196.3,30.9z"/>
<path class="st0" d="M215.5,16c-2.2,0.1-4.3,1.1-5.8,2.8v-2.4h-2.5v16.3h2.5V20.8c1.1-1.5,2.9-2.5,4.8-2.5c2.2,0,3.6,0.9,3.6,3.8
	v10.7h2.5V21.2C220.7,17.7,218.9,16,215.5,16z"/>
<path class="st0" d="M231.5,16c-4.7,0-8,3.8-8,8.5c0,5.1,3.5,8.6,8.3,8.6c2.4,0.1,4.8-0.8,6.5-2.5l-1.3-1.7c-1.3,1.3-3.1,2.1-5,2.1
	c-3.2,0.1-5.8-2.4-5.9-5.6c0,0,0,0,0,0h13.2v-0.6C239.3,19.8,236.4,16,231.5,16z M226.1,23.5c0.1-2.5,1.9-5.4,5.3-5.4
	c2.9,0,5.3,2.3,5.4,5.2c0,0.1,0,0.2,0,0.2H226.1z"/>
<path class="st0" d="M253.2,16.4l-5.4,13.4l-5.4-13.4h-2.7l6.8,16.5l-1.1,2.5c-0.3,1.1-1.3,1.8-2.4,1.7c-0.5,0-0.9-0.1-1.4-0.3
	l-0.4,2.3c0.6,0.2,1.2,0.2,1.9,0.2c2.2,0.1,4.1-1.3,4.8-3.3l8.2-19.6H253.2z"/>
</svg>
