<?xml version="1.0" encoding="utf-8"?>
<!-- Generator: Adobe Illustrator 21.1.0, SVG Export Plug-In . SVG Version: 6.00 Build 0)  -->
<svg version="1.1" id="Layer_1" xmlns="http://www.w3.org/2000/svg" xmlns:xlink="http://www.w3.org/1999/xlink" x="0px" y="0px"
	 viewBox="0 0 51.8 47.5" style="enable-background:new 0 0 51.8 47.5;" xml:space="preserve">
<g>
	<path d="M38.9,36.8c-0.6,0-1,0.4-1,1V44c0,0.8-0.7,1.5-1.5,1.5H3.5C2.7,45.5,2,44.8,2,44V3.5C2,2.7,2.7,2,3.5,2h32.9
		c0.8,0,1.5,0.7,1.5,1.5v15.2c0,0.6,0.4,1,1,1s1-0.4,1-1V3.5c0-1.9-1.6-3.5-3.5-3.5H3.5C1.6,0,0,1.6,0,3.5V44c0,1.9,1.6,3.5,3.5,3.5
		h32.9c1.9,0,3.5-1.6,3.5-3.5v-6.2C39.9,37.2,39.5,36.8,38.9,36.8z"/>
	<path d="M50.9,16.6l-5.3-0.5c-0.6,0-1,0.4-1.1,0.9c-0.1,0.5,0.4,1,0.9,1.1l2.7,0.3L39.5,28l-7.6-5.2c-0.3-0.2-0.6-0.2-0.9-0.1
		c-0.3,0.1-0.5,0.3-0.6,0.6l-3.8,10.6L18,27.4c-0.4-0.3-0.9-0.3-1.2,0L6.7,35.6c-0.4,0.3-0.5,1-0.1,1.4c0.2,0.2,0.5,0.4,0.8,0.4
		c0.2,0,0.4-0.1,0.6-0.2l9.5-7.7l9,6.9c0.3,0.2,0.6,0.3,0.9,0.2c0.3-0.1,0.5-0.3,0.7-0.6l3.9-10.7l7.3,5c0.4,0.3,1,0.2,1.3-0.2
		l9.2-10.5l-0.2,3.2c0,0.6,0.4,1,0.9,1.1c0,0,0,0,0.1,0c0.5,0,1-0.4,1-0.9l0.4-5.2C51.9,17.1,51.5,16.6,50.9,16.6z"/>
	<path d="M22.5,10.1H9.9c-0.6,0-1,0.4-1,1s0.4,1,1,1h12.6c0.6,0,1-0.4,1-1S23.1,10.1,22.5,10.1z"/>
	<path d="M22.5,16.4H9.9c-0.6,0-1,0.4-1,1s0.4,1,1,1h12.6c0.6,0,1-0.4,1-1S23.1,16.4,22.5,16.4z"/>
</g>
</svg>
