<?xml version="1.0" encoding="utf-8"?>
<!-- Generator: Adobe Illustrator 21.1.0, SVG Export Plug-In . SVG Version: 6.00 Build 0)  -->
<svg version="1.1" id="Layer_1" xmlns="http://www.w3.org/2000/svg" xmlns:xlink="http://www.w3.org/1999/xlink" x="0px" y="0px"
	 viewBox="0 0 55.4 47.5" style="enable-background:new 0 0 55.4 47.5;" xml:space="preserve">
<g>
	<path d="M54.1,30.1h-1.7c-0.6-2.7-3-4.8-5.9-4.8c-2.4,0-4.4,1.4-5.4,3.3c-0.6-0.5-1.4-0.8-2.2-0.8c-0.8,0-1.6,0.3-2.2,0.8
		c-1-2-3-3.3-5.4-3.3c-2.9,0-5.3,2.1-5.9,4.8h-1.7c0,0-0.1,0-0.1,0c-0.7,0-1.2,0.6-1.1,1.3c0,0,0,0.1,0,0.1c0,0.7,0.6,1.2,1.3,1.1
		h1.7c0.6,2.7,3,4.8,5.9,4.8c3.3,0,6.1-2.7,6.1-6.1c0,0,0,0,0,0c0-0.8,0.7-1.5,1.5-1.5s1.5,0.7,1.5,1.5c0,0,0,0,0,0
		c0,3.3,2.7,6.1,6.1,6.1c2.9,0,5.3-2.1,5.9-4.8h1.7c0,0,0.1,0,0.1,0c0.7,0,1.2-0.6,1.1-1.3c0,0,0-0.1,0-0.1
		C55.3,30.6,54.8,30,54.1,30.1z M31.3,35.4c-2,0-3.7-1.5-4-3.4c0.1-0.2,0.2-0.4,0.2-0.7c0,0,0-0.1,0-0.1c0-0.2-0.1-0.4-0.2-0.6
		c0.3-1.9,2-3.4,4-3.4c2.2,0,4.1,1.8,4.1,4.1C35.4,33.6,33.6,35.4,31.3,35.4z M46.5,35.4c-2.2,0-4.1-1.8-4.1-4.1
		c0-2.2,1.8-4.1,4.1-4.1c2,0,3.7,1.5,4,3.4c-0.1,0.2-0.2,0.4-0.2,0.7c0,0,0,0.1,0,0.1c0,0.2,0.1,0.4,0.2,0.6
		C50.2,33.9,48.5,35.4,46.5,35.4z"/>
	<path d="M38.9,39.3c-0.6,0-1,0.4-1,1V44c0,0.8-0.7,1.5-1.5,1.5H3.5C2.7,45.5,2,44.8,2,44V3.5C2,2.7,2.7,2,3.5,2h32.9
		c0.8,0,1.5,0.7,1.5,1.5v17.7c0,0.6,0.4,1,1,1s1-0.4,1-1V3.5c0-1.9-1.6-3.5-3.5-3.5H3.5C1.6,0,0,1.6,0,3.5V44c0,1.9,1.6,3.5,3.5,3.5
		h32.9c1.9,0,3.5-1.6,3.5-3.5v-3.7C39.9,39.8,39.5,39.3,38.9,39.3z"/>
	<path d="M31.1,17.4c0-0.6-0.4-1-1-1H9.9c-0.6,0-1,0.4-1,1s0.4,1,1,1h20.2C30.6,18.4,31.1,18,31.1,17.4z"/>
	<path d="M9.9,22.8c-0.6,0-1,0.4-1,1s0.4,1,1,1h8.9c0.6,0,1-0.4,1-1s-0.4-1-1-1H9.9z"/>
	<path d="M30.1,10.1H9.9c-0.6,0-1,0.4-1,1s0.4,1,1,1h20.2c0.6,0,1-0.4,1-1S30.6,10.1,30.1,10.1z"/>
</g>
</svg>
