<?xml version="1.0" encoding="utf-8"?>
<!-- Generator: Adobe Illustrator 21.1.0, SVG Export Plug-In . SVG Version: 6.00 Build 0)  -->
<svg version="1.1" id="Layer_1" xmlns="http://www.w3.org/2000/svg" xmlns:xlink="http://www.w3.org/1999/xlink" x="0px" y="0px"
	 viewBox="0 0 47.4 43.7" style="enable-background:new 0 0 47.4 43.7;" xml:space="preserve">
<g>
	<path d="M3.6,8.7l10.7-6.2c1.1-0.6,2.4-0.6,3.4,0l10.7,6.2c1,0.7,1.7,1.8,1.7,3l0,12.4c-0.1,1.2-0.7,2.3-1.7,3L22,30.9
		c-0.5,0.3-0.6,0.9-0.4,1.4c0.3,0.5,0.9,0.6,1.4,0.4l6.7-3.8c1.5-1.1,2.4-2.7,2.6-4.6l0-12.6c-0.1-1.9-1-3.6-2.6-4.6L18.8,0.8
		c-1.7-0.9-3.7-0.9-5.4,0L2.6,7.1C1.1,8.1,0.1,9.8,0,11.7l0,12.6c0.1,1.9,1,3.6,2.6,4.6l6.7,3.9c0.2,0.1,0.3,0.1,0.5,0.1
		c0.3,0,0.7-0.2,0.9-0.5c0.3-0.5,0.1-1.1-0.4-1.4l-6.7-3.9c-1-0.7-1.7-1.8-1.7-3l0-12.4C2.1,10.5,2.7,9.4,3.6,8.7z"/>
	<path d="M47.4,19.4c-0.1-1.8-1.1-3.5-2.6-4.6l-6.6-3.8c-0.5-0.3-1.1-0.1-1.4,0.4c-0.3,0.5-0.1,1.1,0.4,1.4l6.5,3.7
		c1,0.7,1.6,1.8,1.7,3l0,12.5c0,1.2-0.7,2.3-1.7,3L33,41.1c-1.1,0.6-2.4,0.6-3.4,0L18.9,35c-1-0.7-1.6-1.8-1.7-3l0-12.5
		c0-1.2,0.7-2.3,1.7-3l6.7-3.9c0.5-0.3,0.6-0.9,0.4-1.4c-0.3-0.5-0.9-0.6-1.4-0.4l-6.7,3.9c-1.6,1-2.5,2.7-2.6,4.6l0,12.6
		c0.1,1.8,1.1,3.5,2.6,4.6l10.8,6.2c0.8,0.5,1.8,0.7,2.7,0.7c0.9,0,1.9-0.2,2.7-0.7l10.8-6.2c1.6-1,2.5-2.7,2.6-4.6L47.4,19.4z"/>
</g>
</svg>
