<?xml version="1.0" encoding="utf-8"?>
<!-- Generator: Adobe Illustrator 21.1.0, SVG Export Plug-In . SVG Version: 6.00 Build 0)  -->
<svg version="1.1" id="Layer_1" xmlns="http://www.w3.org/2000/svg" xmlns:xlink="http://www.w3.org/1999/xlink" x="0px" y="0px"
	 viewBox="0 0 51.3 51.3" style="enable-background:new 0 0 51.3 51.3;" xml:space="preserve">
<g>
	<path d="M9.9,10.1c-0.6,0-1,0.4-1,1s0.4,1,1,1h20.2c0.6,0,1-0.4,1-1s-0.4-1-1-1H9.9z"/>
	<path d="M22.5,26.6H9.9c-0.6,0-1,0.4-1,1s0.4,1,1,1h12.6c0.6,0,1-0.4,1-1S23.1,26.6,22.5,26.6z"/>
	<path d="M22.5,32.9H9.9c-0.6,0-1,0.4-1,1s0.4,1,1,1h12.6c0.6,0,1-0.4,1-1S23.1,32.9,22.5,32.9z"/>
	<path d="M49.9,41.8c-0.9-0.9-2.1-1.4-3.3-1.3H45l-2.3-4.3c1.4-1.1,2.3-2.8,2.3-4.8c0-3.3-2.7-6.1-6.1-6.1c-3.3,0-6.1,2.7-6.1,6.1
		c0,1.9,0.9,3.6,2.3,4.7l-2.4,4.4h-1.6c-2.6,0-4.7,2.2-4.6,4.8v1.4c0,1.3,0.5,2.4,1.4,3.3c0.9,0.9,2,1.3,3.3,1.3c0,0,0.1,0,0.1,0
		h1.3c0.6,0,1-0.4,1-1s-0.4-1-1-1h-1.3c-0.7,0-1.4-0.3-1.9-0.8s-0.8-1.2-0.8-1.9v-1.4c0-1.5,1.2-2.7,2.7-2.8c0,0,0,0,0,0
		c0,0,0.1,0,0.1,0h15.2c0.7,0,1.4,0.3,1.9,0.8c0.5,0.5,0.8,1.2,0.8,1.9c0,0,0,0.1,0,0.1v1.3c0,0.6,0.4,1,1,1s1-0.4,1-1v-1.4
		C51.3,43.8,50.8,42.7,49.9,41.8z M38.9,27.3c2.2,0,4.1,1.8,4.1,4.1c0,2.2-1.8,4.1-4.1,4.1c-2.2,0-4.1-1.8-4.1-4.1
		C34.9,29.1,36.7,27.3,38.9,27.3z M36.9,37c0.6,0.2,1.3,0.4,2.1,0.4c0.7,0,1.3-0.1,2-0.3l1.8,3.4H35L36.9,37z"/>
	<path d="M21.2,45.5H3.5C2.7,45.5,2,44.8,2,44V3.5C2,2.7,2.7,2,3.5,2h32.9c0.8,0,1.5,0.7,1.5,1.5v15.2c0,0.6,0.4,1,1,1s1-0.4,1-1
		V3.5c0-1.9-1.6-3.5-3.5-3.5H3.5C1.6,0,0,1.6,0,3.5V44c0,1.9,1.6,3.5,3.5,3.5h17.7c0.6,0,1-0.4,1-1S21.8,45.5,21.2,45.5z"/>
</g>
</svg>
