<?xml version="1.0" encoding="utf-8"?>
<!-- Generator: Adobe Illustrator 21.1.0, SVG Export Plug-In . SVG Version: 6.00 Build 0)  -->
<svg version="1.1" id="Layer_1" xmlns="http://www.w3.org/2000/svg" xmlns:xlink="http://www.w3.org/1999/xlink" x="0px" y="0px"
	 viewBox="0 0 93.5 77.5" style="enable-background:new 0 0 93.5 77.5;" xml:space="preserve">
<g>
	<path d="M66.6,13.6c0.6,0,1-0.4,1-1V11c0-0.6-0.4-1-1-1H9.3c-0.6,0-1,0.4-1,1v57.2c0,0.6,0.4,1,1,1h57.3c0.6,0,1-0.4,1-1V39.6
		c0-0.6-0.4-1-1-1s-1,0.4-1,1v27.6H10.3V12h55.3v0.6C65.6,13.2,66,13.6,66.6,13.6z"/>
	<path d="M74.8,30.4c-0.6,0-1,0.4-1,1v44.1H2V3.7h71.8v0.6c0,0.6,0.4,1,1,1s1-0.4,1-1V2.7c0-0.6-0.4-1-1-1H1c-0.6,0-1,0.4-1,1v73.8
		c0,0.6,0.4,1,1,1h73.8c0.6,0,1-0.4,1-1V31.4C75.8,30.9,75.4,30.4,74.8,30.4z"/>
	<path d="M79.8,3.4c-0.4-0.4-1-0.4-1.4,0L44.9,36.9L29.5,21.4c-0.2-0.2-0.4-0.3-0.7-0.3c0,0,0,0,0,0c-0.3,0-0.5,0.1-0.7,0.3
		L17.3,32.3c-0.4,0.4-0.4,1,0,1.4l25.9,25.9c0.2,0.2,0.5,0.3,0.7,0.3s0.5-0.1,0.7-0.3l45-45c0.2-0.2,0.3-0.4,0.3-0.7
		s-0.1-0.5-0.3-0.7L79.8,3.4z M43.9,57.5L19.4,33l9.4-9.5L44.2,39c0.2,0.2,0.4,0.3,0.7,0.3c0,0,0,0,0,0c0.3,0,0.5-0.1,0.7-0.3
		L79.1,5.5l8.4,8.4L43.9,57.5z"/>
	<path d="M33.6,58.3c0.3,0,0.5-0.1,0.7-0.3c0.4-0.4,0.4-1,0-1.4L20.8,43c-0.4-0.4-1-0.4-1.4,0c-0.4,0.4-0.4,1,0,1.4L32.9,58
		C33.1,58.2,33.3,58.3,33.6,58.3z"/>
	<path d="M92.8,7.5L86,0.7c-0.4-0.4-1-0.4-1.4,0s-0.4,1,0,1.4l6.8,6.8c0.2,0.2,0.5,0.3,0.7,0.3s0.5-0.1,0.7-0.3
		C93.2,8.5,93.2,7.9,92.8,7.5z"/>
	<path d="M42.9,53.8c0.2,0.2,0.5,0.3,0.7,0.3s0.5-0.1,0.7-0.3l39.6-39.6c0.4-0.4,0.4-1,0-1.4s-1-0.4-1.4,0L42.9,52.4
		C42.5,52.8,42.5,53.4,42.9,53.8z"/>
</g>
</svg>
