<?xml version="1.0" encoding="utf-8"?>
<!-- Generator: Adobe Illustrator 21.1.0, SVG Export Plug-In . SVG Version: 6.00 Build 0)  -->
<svg version="1.1" id="Layer_1" xmlns="http://www.w3.org/2000/svg" xmlns:xlink="http://www.w3.org/1999/xlink" x="0px" y="0px"
	 viewBox="0 0 52.6 52.6" style="enable-background:new 0 0 52.6 52.6;" xml:space="preserve">
<g>
	<path d="M26.3,0C11.8,0,0,11.8,0,26.3c0,14.5,11.8,26.2,26.3,26.3h0c14.5,0,26.3-11.8,26.3-26.3S40.8,0,26.3,0z M26.3,50.6
		C12.9,50.5,2,39.6,2,26.3C2,12.9,12.9,2,26.3,2c13.4,0,24.3,10.9,24.3,24.3C50.6,39.7,39.7,50.6,26.3,50.6z"/>
	<path d="M38.4,13.8c-0.3-0.3-0.7-0.4-1.1-0.2L21.1,21c-0.2,0.1-0.4,0.3-0.5,0.5l-7,15.9c-0.2,0.4-0.1,0.8,0.2,1.1
		c0.2,0.2,0.4,0.3,0.7,0.3c0.1,0,0.3,0,0.4-0.1L31,31.5c0.2-0.1,0.4-0.3,0.5-0.5l7.1-16.1C38.8,14.6,38.7,14.1,38.4,13.8z
		 M29.8,29.8l-13.3,6l5.8-13.2l13.5-6.1L29.8,29.8z"/>
	<path d="M15.4,17.3c0.3,0,0.5-0.1,0.7-0.3c0.4-0.4,0.4-1,0-1.4l-2.8-2.8c-0.4-0.4-1-0.4-1.4,0c-0.4,0.4-0.4,1,0,1.4l2.8,2.8
		C14.9,17.2,15.1,17.3,15.4,17.3z"/>
	<path d="M37.5,36.9c-0.4-0.4-1-0.4-1.4,0s-0.4,1,0,1.4l2.7,2.7c0.2,0.2,0.5,0.3,0.7,0.3s0.5-0.1,0.7-0.3c0.4-0.4,0.4-1,0-1.4
		L37.5,36.9z"/>
</g>
</svg>
