<?xml version="1.0" encoding="utf-8"?>
<!-- Generator: Adobe Illustrator 21.1.0, SVG Export Plug-In . SVG Version: 6.00 Build 0)  -->
<svg version="1.1" id="Layer_1" xmlns="http://www.w3.org/2000/svg" xmlns:xlink="http://www.w3.org/1999/xlink" x="0px" y="0px"
	 viewBox="0 0 87.2 87.1" style="enable-background:new 0 0 87.2 87.1;" xml:space="preserve">
<g>
	<path d="M86.5,38.4l-5.7-5.7c-0.4-0.4-1-0.4-1.4,0L76,36.2l-25-25l3.4-3.4c0.4-0.4,0.4-1,0-1.4l-5.7-5.7c-0.2-0.2-0.4-0.3-0.7-0.3
		s-0.5,0.1-0.7,0.3L19,29c-0.4,0.4-0.4,1,0,1.4l5.7,5.7c0.2,0.2,0.4,0.3,0.7,0.3s0.5-0.1,0.7-0.3l3.3-3.3l8.9,8.9L3.6,76.4
		C2.5,77.5,2,79,2.2,80.5l-1.9,1.9C0.1,82.7,0,82.9,0,83.2c0,0.3,0.1,0.5,0.3,0.7l2.9,2.9c0.2,0.2,0.4,0.3,0.7,0.3s0.5-0.1,0.7-0.3
		l2-2c0.2,0,0.5,0.1,0.7,0.1c1.2,0,2.5-0.5,3.4-1.4l34.7-34.7l9,9l-3.3,3.3c-0.2,0.2-0.3,0.4-0.3,0.7s0.1,0.5,0.3,0.7l5.7,5.7
		c0.2,0.2,0.5,0.3,0.7,0.3s0.5-0.1,0.7-0.3l28.3-28.3c0.2-0.2,0.3-0.4,0.3-0.7S86.7,38.6,86.5,38.4z M25.4,33.9l-4.2-4.2L48,2.8
		l4.2,4.2l-3.4,3.4c0,0,0,0,0,0L28.7,30.6c0,0,0,0,0,0L25.4,33.9z M49.6,12.6l25,25L55.8,56.3l-9.4-9.4c0-0.1-0.1-0.2-0.2-0.3
		l-5.7-5.7c-0.1-0.1-0.2-0.2-0.3-0.2l-9.3-9.3L49.6,12.6z M3.9,84.7l-1.5-1.5l0.6-0.6c0.1,0.2,0.3,0.4,0.4,0.6l0.4,0.4
		c0.2,0.2,0.4,0.4,0.6,0.5L3.9,84.7z M9.3,82.1c-0.7,0.7-1.6,0.9-2.5,0.8c-0.2-0.1-0.4-0.2-0.6-0.2c-0.3-0.1-0.7-0.3-0.9-0.6
		l-0.4-0.4c-0.2-0.3-0.4-0.5-0.5-0.8c0-0.2,0-0.4-0.2-0.6c-0.1-0.9,0.1-1.8,0.8-2.4c0,0,0,0,0,0L39.7,43l4.3,4.3L9.3,82.1z M57.5,66
		l-4.2-4.2l26.9-26.9l4.2,4.2L57.5,66z"/>
	<path d="M55,51.3c0.2,0.2,0.4,0.3,0.7,0.3c0.3,0,0.5-0.1,0.7-0.3c0.4-0.4,0.4-1,0-1.4l-10.1-10c-0.4-0.4-1-0.4-1.4,0
		c-0.4,0.4-0.4,1,0,1.4L55,51.3z"/>
	<path d="M42.1,38.5c0.2,0.2,0.5,0.3,0.7,0.3c0.2,0,0.5-0.1,0.7-0.3c0.4-0.4,0.4-1,0-1.4l-2.6-2.7c-0.4-0.4-1-0.4-1.4,0
		c-0.4,0.4-0.4,1,0,1.4L42.1,38.5z"/>
	<path d="M83.3,78.1h-6.2c0-0.1,0-0.1,0-0.2c0,0,0-0.1,0-0.1v-4.5c0-1.3-1-2.3-2.3-2.3H44.3C43,71,42,72,42,73.3v4.5
		c0,0.1,0,0.2,0,0.3h-6.5c-1.3,0-2.3,1-2.3,2.3v4.4c0,1.3,1,2.3,2.3,2.3h47.8c0,0,0,0,0,0c0,0,0.1,0,0.1,0c1.2,0,2.1-1.1,2.1-2.2
		v-4.5C85.6,79.1,84.6,78.1,83.3,78.1z M44,77.8v-4.5c0-0.2,0.1-0.3,0.3-0.3h30.5c0.2,0,0.3,0.1,0.3,0.3v4.4c0,0.2-0.2,0.4-0.4,0.4
		H44.3C44.1,78.1,44,77.9,44,77.8z M83.5,85.1l-0.1,1L83.5,85.1C83.4,85.1,83.4,85.1,83.5,85.1H35.6c-0.2,0-0.3-0.1-0.3-0.3v-4.4
		c0-0.2,0.1-0.3,0.3-0.3h8.7h30.4h8.6c0.2,0,0.3,0.1,0.3,0.3l0,4.5C83.6,85,83.5,85.1,83.5,85.1z"/>
</g>
</svg>
