<?xml version="1.0" encoding="utf-8"?>
<!-- Generator: Adobe Illustrator 21.1.0, SVG Export Plug-In . SVG Version: 6.00 Build 0)  -->
<svg version="1.1" id="Layer_1" xmlns="http://www.w3.org/2000/svg" xmlns:xlink="http://www.w3.org/1999/xlink" x="0px" y="0px"
	 viewBox="0 0 40.5 46" style="enable-background:new 0 0 40.5 46;" xml:space="preserve">
<g>
	<path d="M24.6,26.9H9.1c-0.6,0-1,0.4-1,1s0.4,1,1,1h15.5c0.6,0,1-0.4,1-1S25.1,26.9,24.6,26.9z"/>
	<path d="M21.3,33H9.1c-0.6,0-1,0.4-1,1s0.4,1,1,1h12.2c0.6,0,1-0.4,1-1S21.8,33,21.3,33z"/>
	<path d="M8.7,21.4c0.1,0,0.2,0.1,0.3,0.1c0.4,0,0.8-0.3,0.9-0.7l1.1-3c0.1,0.1,0.3,0.1,0.4,0.1h4.9c0.1,0,0.3,0,0.4-0.1l1.1,3
		c0.2,0.5,0.8,0.8,1.3,0.6c0.5-0.2,0.8-0.8,0.6-1.3L14.9,6.8c-0.1-0.4-0.5-0.7-0.9-0.7S13.2,6.4,13,6.8L8.1,20.1
		C7.9,20.6,8.2,21.2,8.7,21.4z M14,10l2.2,5.9h-4.3L14,10z"/>
	<path d="M38.1,0H2.3C1.1,0,0,1.1,0,2.3c0,0,0,0,0,0v41.3C0,44.9,1.1,46,2.3,46h25.1c0,0,0,0,0.1,0c0.1,0,0.2,0,0.3,0
		c0,0,0.1,0,0.1,0c0.3,0,0.6-0.1,0.7-0.3c0.2-0.1,0.3-0.2,0.5-0.4l10.6-11.5c0.4-0.4,0.6-0.9,0.6-1.5V2.3C40.5,1.1,39.4,0,38.1,0z
		 M2,43.6V2.4C2,2.2,2.2,2,2.3,2h35.8c0.2,0,0.4,0.2,0.4,0.3l0,29.8h-7.6c-2.2,0-3.9,1.8-3.9,3.9V44H2.4C2.2,44,2,43.8,2,43.6z
		 M29,42.6v-6.5c0-1.1,0.9-1.9,1.9-1.9h5.9L29,42.6z"/>
</g>
</svg>
