<?xml version="1.0" encoding="utf-8"?>
<!-- Generator: Adobe Illustrator 21.1.0, SVG Export Plug-In . SVG Version: 6.00 Build 0)  -->
<svg version="1.1" id="Layer_1" xmlns="http://www.w3.org/2000/svg" xmlns:xlink="http://www.w3.org/1999/xlink" x="0px" y="0px"
	 viewBox="0 0 52.9 54.8" style="enable-background:new 0 0 52.9 54.8;" xml:space="preserve">
<path d="M52.4,53.8h-1v-1.5c0-0.3-0.2-0.5-0.5-0.5s-0.5,0.2-0.5,0.5v1.5h-4.5v-1.5c0-0.3-0.2-0.5-0.5-0.5s-0.5,0.2-0.5,0.5v1.5h-4.5
	v-1.5c0-0.3-0.2-0.5-0.5-0.5s-0.5,0.2-0.5,0.5v1.5h-4.5v-1.5c0-0.3-0.2-0.5-0.5-0.5s-0.5,0.2-0.5,0.5v1.5h-4.5v-1.5
	c0-0.3-0.2-0.5-0.5-0.5s-0.5,0.2-0.5,0.5v1.5h-4.5v-1.5c0-0.3-0.2-0.5-0.5-0.5s-0.5,0.2-0.5,0.5v1.5h-4.5v-1.5
	c0-0.3-0.2-0.5-0.5-0.5s-0.5,0.2-0.5,0.5v1.5h-4.5v-1.5c0-0.3-0.2-0.5-0.5-0.5s-0.5,0.2-0.5,0.5v1.5H7.2v-1.5c0-0.3-0.2-0.5-0.5-0.5
	s-0.5,0.2-0.5,0.5v1.5H1.3l10-10l4.3,4.3c0.1,0.1,0.4,0.2,0.5,0.1c0.2-0.1,0.3-0.3,0.3-0.5V26.5l7.3,7.3c0.2,0.2,0.5,0.2,0.7,0
	l16.2-16.2v9.6c0,0.3,0.2,0.5,0.5,0.5s0.5-0.2,0.5-0.5V16.4c0-0.1,0-0.1,0-0.2c0,0,0-0.1-0.1-0.1c0,0,0-0.1-0.1-0.1c0,0,0,0,0,0
	c0,0-0.1-0.1-0.1-0.1c-0.1,0-0.1,0-0.2,0c0,0,0,0,0,0H30.3c-0.3,0-0.5,0.2-0.5,0.5s0.2,0.5,0.5,0.5H40L24.1,32.7l-7.8-7.8
	c-0.1-0.1-0.4-0.2-0.5-0.1c-0.2,0.1-0.3,0.3-0.3,0.5v21.2l-3.8-3.8c-0.2-0.2-0.5-0.2-0.7,0l-10,10v-4.5h1c0.3,0,0.5-0.2,0.5-0.5
	S2.3,47.2,2,47.2H1v-4.5h1c0.3,0,0.5-0.2,0.5-0.5S2.3,41.7,2,41.7H1v-4.5h1c0.3,0,0.5-0.2,0.5-0.5S2.3,36.1,2,36.1H1v-4.5h1
	c0.3,0,0.5-0.2,0.5-0.5S2.3,30.7,2,30.7H1v-4.5h1c0.3,0,0.5-0.2,0.5-0.5S2.3,25.2,2,25.2H1v-4.5h1c0.3,0,0.5-0.2,0.5-0.5
	S2.3,19.7,2,19.7H1v-4.5h1c0.3,0,0.5-0.2,0.5-0.5S2.3,14.1,2,14.1H1V9.6h1c0.3,0,0.5-0.2,0.5-0.5S2.3,8.6,2,8.6H1V4.1h1
	c0.3,0,0.5-0.2,0.5-0.5S2.3,3.1,2,3.1H1V0.5C1,0.2,0.8,0,0.5,0S0,0.2,0,0.5v53.8c0,0.3,0.2,0.5,0.5,0.5h51.9c0.3,0,0.5-0.2,0.5-0.5
	S52.7,53.8,52.4,53.8z"/>
</svg>
