<?xml version="1.0" encoding="utf-8"?>
<!-- Generator: Adobe Illustrator 21.1.0, SVG Export Plug-In . SVG Version: 6.00 Build 0)  -->
<svg version="1.1" id="Layer_1" xmlns="http://www.w3.org/2000/svg" xmlns:xlink="http://www.w3.org/1999/xlink" x="0px" y="0px"
	 viewBox="0 0 49.1 56.3" style="enable-background:new 0 0 49.1 56.3;" xml:space="preserve">
<g>
	<path d="M48.7,6.5L25.1,0.1c-0.6-0.2-1.2-0.2-1.7,0l-23,6.3C0.2,6.5,0,6.7,0,6.9v17c0,12.6,7,23.9,18.2,29.7l4.5,2.3c0,0,0,0,0,0
		c0.5,0.2,1,0.4,1.5,0.4s1-0.1,1.5-0.4l4.8-2.4C42,47.9,49.1,36.4,49.1,23.7V6.9C49.1,6.7,48.9,6.5,48.7,6.5z M48.1,23.7
		c0,12.4-6.9,23.4-18,28.9L25.2,55c-0.7,0.3-1.4,0.3-2.1,0l-4.5-2.3C7.8,47.2,1,36.2,1,24V7.3l22.6-6.2C24,1,24.4,1,24.8,1.1
		l23.3,6.2V23.7z"/>
	<path d="M24.5,22.7c-2.4,0-4.3,1.9-4.3,4.3c0,2.4,1.9,4.3,4.3,4.3c2.4,0,4.3-1.9,4.3-4.3C28.9,24.7,26.9,22.7,24.5,22.7z
		 M24.5,30.4c-1.8,0-3.3-1.5-3.3-3.3c0-1.8,1.5-3.3,3.3-3.3c1.8,0,3.3,1.5,3.3,3.3C27.9,28.9,26.4,30.4,24.5,30.4z"/>
	<path d="M30.4,21.9l1.3-1.2c0.2-0.2,0.2-0.5,0-0.7c-0.2-0.2-0.5-0.2-0.7,0l-1.3,1.2c-1.3-1.1-2.9-1.8-4.7-1.9v-1.7
		c0-0.3-0.2-0.5-0.5-0.5S24,17.2,24,17.5v1.7c-1.8,0.1-3.4,0.8-4.7,1.9L18.1,20c-0.2-0.2-0.5-0.2-0.7,0c-0.2,0.2-0.2,0.5,0,0.7
		l1.3,1.2c-1.1,1.3-1.8,2.9-1.9,4.7h-1.8c-0.3,0-0.5,0.2-0.5,0.5s0.2,0.5,0.5,0.5h1.8c0.1,1.8,0.8,3.4,2,4.7l-1.3,1.2
		c-0.2,0.2-0.2,0.5,0,0.7c0.1,0.1,0.2,0.2,0.4,0.2c0.1,0,0.2,0,0.3-0.1l1.3-1.3c1.3,1.1,2.9,1.8,4.6,1.9v1.8c0,0.3,0.2,0.5,0.5,0.5
		S25,37,25,36.7v-1.8c1.8-0.1,3.4-0.8,4.6-1.9l1.3,1.3c0.1,0.1,0.2,0.1,0.3,0.1c0.1,0,0.3-0.1,0.4-0.2c0.2-0.2,0.2-0.5,0-0.7
		l-1.3-1.2c1.1-1.3,1.8-2.9,2-4.7h1.7c0.3,0,0.5-0.2,0.5-0.5s-0.2-0.5-0.5-0.5h-1.7C32.2,24.8,31.5,23.2,30.4,21.9z M24.5,33.9
		c-3.8,0-6.8-3.1-6.8-6.8c0-1.9,0.8-3.6,2-4.8c0,0,0,0,0,0c0,0,0,0,0,0c1.2-1.2,2.9-2,4.8-2c1.9,0,3.6,0.8,4.8,2c0,0,0,0,0,0
		c0,0,0,0,0,0c1.2,1.2,2,2.9,2,4.8C31.4,30.8,28.3,33.9,24.5,33.9z"/>
	<path d="M24.5,15.3c-6.5,0-11.7,5.3-11.7,11.7s5.3,11.7,11.7,11.7c6.5,0,11.7-5.3,11.7-11.7S31,15.3,24.5,15.3z M24.5,37.8
		c-5.9,0-10.7-4.8-10.7-10.7c0-5.9,4.8-10.7,10.7-10.7s10.7,4.8,10.7,10.7C35.3,33,30.5,37.8,24.5,37.8z"/>
	<path d="M24.4,13.5c0.1,0.1,0.2,0.1,0.4,0.1s0.3,0,0.4-0.1l2.3-2.3c0.2-0.2,0.2-0.5,0-0.7s-0.5-0.2-0.7,0l-1.9,1.9l-1.9-1.9
		c-0.2-0.2-0.5-0.2-0.7,0s-0.2,0.5,0,0.7L24.4,13.5z"/>
	<path d="M24,3c-0.1,0.3,0.1,0.5,0.3,0.6l21.5,5.9c0,0,0.1,0,0.1,0c0.2,0,0.4-0.1,0.5-0.4c0.1-0.3-0.1-0.5-0.3-0.6L24.7,2.6
		C24.4,2.5,24.1,2.7,24,3z"/>
	<path d="M24.7,52.6c-12.6-4.5-21-16.4-21-29.8V9c0-0.3-0.2-0.5-0.5-0.5S2.7,8.7,2.7,9v13.9c0,13.8,8.7,26.1,21.7,30.7
		c0.1,0,0.1,0,0.2,0c0.2,0,0.4-0.1,0.5-0.3C25.1,53,25,52.7,24.7,52.6z"/>
</g>
</svg>
