<?xml version="1.0" encoding="utf-8"?>
<!-- Generator: Adobe Illustrator 21.1.0, SVG Export Plug-In . SVG Version: 6.00 Build 0)  -->
<svg version="1.1" id="Layer_1" xmlns="http://www.w3.org/2000/svg" xmlns:xlink="http://www.w3.org/1999/xlink" x="0px" y="0px"
	 viewBox="0 0 105.7 105.8" style="enable-background:new 0 0 105.7 105.8;" xml:space="preserve">
<g>
	<path d="M78.2,27.5c-5-5-11.7-7.8-18.7-7.8c-7.1,0-13.7,2.8-18.7,7.8c-5,5-7.8,11.7-7.8,18.7c0,7.1,2.8,13.7,7.8,18.7
		c5.2,5.2,12,7.8,18.7,7.7c6.8,0,13.6-2.6,18.7-7.7c5-5,7.8-11.7,7.8-18.7C86,39.2,83.2,32.5,78.2,27.5z M76.8,63.6
		c-9.6,9.6-25.1,9.6-34.6,0C37.5,58.9,35,52.8,35,46.2c0-6.5,2.5-12.7,7.2-17.3s10.8-7.2,17.3-7.2c6.5,0,12.7,2.5,17.3,7.2
		c4.6,4.6,7.2,10.8,7.2,17.3C84,52.8,81.4,58.9,76.8,63.6z"/>
	<path d="M78.3,50.6c-0.5-0.1-1.1,0.2-1.2,0.7c-1.9,7-8.3,11.9-15.5,11.9c0,0,0,0,0,0c-0.6,0-1,0.4-1,1c0,0.6,0.5,1,1,1
		c8.1,0,15.3-5.5,17.4-13.3C79.2,51.3,78.9,50.7,78.3,50.6z"/>
	<path d="M78.1,39.4c-0.2-0.5-0.8-0.7-1.3-0.5c-0.5,0.2-0.7,0.8-0.5,1.3c1,2.2,1.5,4.4,1.5,6.8c0,0.5,0.5,1,1,1c0,0,0,0,0,0
		c0.6,0,1-0.5,1-1C79.7,44.4,79.2,41.8,78.1,39.4z"/>
	<path d="M82.6,23.1c-12.8-12.8-33.5-12.7-46.2,0c-6.2,6.2-9.6,14.4-9.6,23.1c0,6.7,2,13.2,5.8,18.6l-7.1,7.1
		c-1.8,0.1-3.6,0.8-5,2.1L2.2,92.3c-2.9,2.9-2.9,7.7,0,10.6l0.8,0.8c1.4,1.3,3.2,2.1,5.1,2.1c0,0,0.1,0,0.1,0c2,0,3.8-0.8,5.2-2.2
		l18.3-18.3c0.2-0.2,0.3-0.4,0.3-0.6c0.1-0.6,0.2-1.3,0.3-2c0.1-0.7,0.3-1.5,0.3-2.3c0.1,0.1,0.3,0.1,0.4,0.1c0.3,0,0.5-0.1,0.7-0.3
		l7.1-7.1c5.4,3.8,11.8,5.8,18.6,5.8c8.7,0,16.9-3.4,23.1-9.6C95.3,56.6,95.3,35.9,82.6,23.1z M30.3,82.3c-0.1,0.6-0.2,1.2-0.3,1.7
		L12,102.1c-1,1-2.3,1.6-3.8,1.6c-1.4,0-2.8-0.5-3.8-1.5l-0.1-0.1c0,0,0,0,0,0l-0.6-0.6c-2.1-2.2-2.1-5.7,0-7.8l18.3-18.3
		c1.1-1.1,2.5-1.6,3.9-1.6c1.4,0,2.8,0.5,3.9,1.6l0.5,0.5C31.2,77.4,30.7,79.9,30.3,82.3z M32.8,78.4c0-1.3-0.2-2.6-1-3.7
		c0,0-0.1-0.1-0.1-0.1L31.1,74c-0.9-0.9-1.9-1.5-3.1-1.8l5.8-5.8c0.8,1,1.6,2,2.6,2.9c0.9,0.9,1.9,1.8,2.9,2.6L32.8,78.4z M81.2,68
		c-5.8,5.8-13.5,9-21.7,9c-8.2,0-15.9-3.2-21.7-9c-1.1-1.1-2.2-2.4-3.1-3.6c0,0,0-0.1-0.1-0.1c0,0,0,0,0,0c-3.8-5.2-5.8-11.4-5.8-18
		c0-8.2,3.2-15.9,9-21.7c6-6,13.8-9,21.7-9c7.9,0,15.7,3,21.7,9C93.1,36.5,93.1,56,81.2,68z"/>
	<path d="M27,76.5c-0.4-0.4-1-0.4-1.4,0s-0.4,1,0,1.4l0.5,0.5c0.4,0.4,0.7,1,0.7,1.5c0,0.6-0.2,1.1-0.7,1.6l-5.6,5.6
		c-0.4,0.4-0.4,1,0,1.4c0.2,0.2,0.5,0.3,0.7,0.3s0.5-0.1,0.7-0.3l5.7-5.7c0.8-0.8,1.2-1.9,1.2-3c0-1.1-0.5-2.2-1.3-2.9L27,76.5z"/>
	<path d="M18.7,89l-3.1,3.2c-0.4,0.4-0.4,1,0,1.4c0.2,0.2,0.4,0.3,0.7,0.3c0.3,0,0.5-0.1,0.7-0.3l3.1-3.2c0.4-0.4,0.4-1,0-1.4
		C19.7,88.6,19,88.6,18.7,89z"/>
</g>
</svg>
