<?xml version="1.0" encoding="utf-8"?>
<!-- Generator: Adobe Illustrator 21.1.0, SVG Export Plug-In . SVG Version: 6.00 Build 0)  -->
<svg version="1.1" id="Layer_1" xmlns="http://www.w3.org/2000/svg" xmlns:xlink="http://www.w3.org/1999/xlink" x="0px" y="0px"
	 viewBox="0 0 36.3 56.6" style="enable-background:new 0 0 36.3 56.6;" xml:space="preserve">
<g>
	<path d="M36.3,46.9V8c0,0,0,0,0,0s0,0,0,0V3.3c0-0.9-0.4-1.7-1-2.4c-0.6-0.6-1.5-1-2.4-1c0,0,0,0,0,0H3.4C1.6,0,0.1,1.5,0.1,3.4
		v4.4C0,7.9,0,8,0,8s0,0.2,0.1,0.2v38.4C0,46.8,0,46.9,0,46.9s0,0.2,0.1,0.2v6.1c0,0.9,0.4,1.7,1,2.4c0.6,0.6,1.5,1,2.4,1
		c0,0,0,0,0,0H33c0,0,0,0,0,0c1.9,0,3.3-1.5,3.3-3.4V46.9C36.3,46.9,36.3,46.9,36.3,46.9C36.3,46.9,36.3,46.9,36.3,46.9z M1.1,8.5
		h34.3v37.9H1.1V8.5z M3.5,1h29.5c0,0,0,0,0,0c0.6,0,1.2,0.2,1.7,0.7c0.5,0.4,0.7,1,0.7,1.7v4.1H1.1V3.4C1.1,2.1,2.1,1,3.5,1z
		 M33,55.6H3.5c-0.6,0-1.2-0.2-1.7-0.7s-0.7-1-0.7-1.7v-5.8h34.3v5.8C35.4,54.5,34.3,55.6,33,55.6z"/>
	<path d="M18.1,48.4c-1.6,0-2.9,1.3-2.9,2.9s1.3,2.9,2.9,2.9s2.9-1.3,2.9-2.9S19.7,48.4,18.1,48.4z M18.1,53.2
		c-1.1,0-1.9-0.9-1.9-1.9s0.9-1.9,1.9-1.9c1.1,0,1.9,0.9,1.9,1.9S19.2,53.2,18.1,53.2z"/>
	<path d="M14.3,5.4h8.4c0.3,0,0.5-0.2,0.5-0.5S23,4.4,22.7,4.4h-8.4c-0.3,0-0.5,0.2-0.5,0.5S14,5.4,14.3,5.4z"/>
	<path d="M30.4,17.8l-1.3-1.3c-0.2-0.2-0.4-0.2-0.6-0.1l-2.9,2c0,0-0.1,0-0.1,0.1c-0.7,0.7-0.8,1.8-0.3,2.6l-5.7,5.7l-3.1-3.2
		c0.6-1.3,0.7-2.7,0.3-4.1c-0.4-1.5-1.4-2.7-2.7-3.5c-1.7-1-3.9-1-5.7,0c-0.1,0.1-0.2,0.2-0.3,0.4s0,0.3,0.1,0.4l3.3,3.3l-1.4,1.4
		l-3.3-3.3c-0.1-0.1-0.3-0.2-0.4-0.1c-0.2,0-0.3,0.1-0.4,0.3c-0.8,1.4-0.9,2.9-0.5,4.4c0.4,1.5,1.4,2.7,2.7,3.5
		c1.6,0.9,3.6,1,5.3,0.2l1.8,1.8c0,0-0.1,0.1-0.1,0.1l-6.8,6.8c-0.2,0.2-0.2,0.5,0,0.7l2.8,2.8c0.1,0.1,0.2,0.1,0.4,0.1
		s0.3-0.1,0.4-0.1l2.1-2.1c0,0,0,0,0,0s0,0,0,0l4.7-4.7c0,0,0,0,0.1-0.1l5.6,5.6c0.4,0.4,0.8,0.6,1.3,0.6c0,0,0,0,0.1,0
		c0.5,0,0.9-0.2,1.3-0.5c0,0,0.1-0.1,0.1-0.1c0.4-0.4,0.6-0.8,0.6-1.3s-0.2-1-0.5-1.4c0,0-0.1-0.1-0.1-0.1l-7-7.1l5.7-5.7
		c0.3,0.2,0.7,0.3,1.1,0.3c0.5,0,1.1-0.2,1.5-0.6c0,0,0-0.1,0.1-0.1l2-3C30.6,18.3,30.6,18,30.4,17.8z M14,25.5
		c-0.2-0.2-0.4-0.2-0.6-0.1c-1.4,0.8-3.2,0.8-4.7,0c-2.1-1.2-3-3.7-2.1-5.9l3.1,3.1c0.1,0.1,0.2,0.1,0.4,0.1s0.3-0.1,0.4-0.1
		l2.1-2.1c0.1-0.1,0.1-0.2,0.1-0.4c0-0.1-0.1-0.3-0.1-0.4l-3.1-3.1c1.3-0.5,2.8-0.4,4.1,0.3c1.1,0.6,1.9,1.6,2.3,2.9
		s0.2,2.5-0.4,3.6c-0.1,0.2-0.1,0.4,0.1,0.6l3.4,3.4L18.4,28c-0.4-0.3-0.9-0.5-1.4-0.4c-0.2,0-0.5,0.1-0.7,0.1L14,25.5z M11.6,37.6
		l-2.1-2.1l1.4-1.4l2.1,2.1L11.6,37.6z M13.7,35.5l-2.1-2.1l4.4-4.4c0.3-0.3,0.6-0.4,1-0.5c0.4,0,0.8,0.1,1.1,0.5
		c0.3,0.3,0.4,0.6,0.5,1c0,0.3-0.1,0.5-0.2,0.8c0,0,0,0,0,0.1c-0.1,0.1-0.1,0.2-0.2,0.3L13.7,35.5z M26.6,35.4
		c0.2,0.2,0.3,0.4,0.2,0.7c0,0.2-0.1,0.5-0.3,0.6c0,0-0.1,0.1-0.1,0.1c-0.2,0.2-0.4,0.2-0.7,0.2c-0.2,0-0.5-0.1-0.7-0.3l-5.8-5.8
		c0.1-0.3,0.2-0.6,0.2-0.9c0-0.5-0.2-0.9-0.4-1.3l0.4-0.4L26.6,35.4z M27.7,20.8c-0.4,0.4-1.1,0.4-1.5,0c-0.4-0.4-0.4-1.1,0-1.6
		l2.5-1.7l0.7,0.7L27.7,20.8z"/>
</g>
</svg>
